<?xml version="1.0" encoding="iso-8859-1"?>
<!-- Uploaded to: SVG Repo, www.svgrepo.com, Generator: SVG Repo Mixer Tools -->
<svg fill="#000000" height="20px" width="20px" version="1.1" id="Layer_1" xmlns="http://www.w3.org/2000/svg" xmlns:xlink="http://www.w3.org/1999/xlink"
	 viewBox="0 0 512 512" xml:space="preserve">
<g>
	<g>
		<path d="M445.217,166.957V116.87C445.217,52.428,392.79,0,328.348,0H183.652C119.21,0,66.783,52.428,66.783,116.87v50.087
			C29.959,166.957,0,196.915,0,233.739c0,24.079,13.004,46.03,33.336,57.814c0.027,28.176,0.017,76.597,0.004,103.579
			c-0.009,22.039,14.145,40.489,33.442,47.263v52.91c0,9.22,7.475,16.696,16.696,16.696h66.783c9.22,0,16.696-7.475,16.696-16.696
			v-50.087h178.087v50.087c0,9.22,7.475,16.696,16.696,16.696h66.783c9.22,0,16.696-7.475,16.696-16.696v-52.91
			c19.208-6.743,33.451-25.122,33.441-47.263c-0.012-26.98-0.022-75.402,0.004-103.579C498.996,279.769,512,257.818,512,233.739
			C512,196.915,482.041,166.957,445.217,166.957z M100.174,116.87c0-46.03,37.448-83.478,83.478-83.478h144.696
			c46.03,0,83.478,37.448,83.478,83.478v59.071c-19.939,11.563-33.389,33.129-33.391,57.789c0,0,0,0.002,0,0.004v0.004v69.654
			c-5.226-1.853-10.843-2.872-16.696-2.872h-16.696v-50.087c0-9.22-7.475-16.696-16.696-16.696s-16.696,7.475-16.696,16.696v50.087
			h-38.956v-83.478c0-9.22-7.475-16.696-16.696-16.696c-9.22,0-16.696,7.475-16.696,16.696v83.478h-38.957v-50.087
			c0-9.22-7.475-16.696-16.696-16.696c-9.22,0-16.696,7.475-16.696,16.696v50.087h-16.696c-5.852,0-11.47,1.018-16.696,2.872
			v-69.654v-0.004c0-0.002,0-0.002,0-0.002c-0.002-24.664-13.452-46.228-33.391-57.791V116.87z M83.428,411.826
			c-9.222,0-16.7-7.44-16.696-16.679c0.013-30.789,0.024-89.494-0.019-114.225c-0.012-7.057-4.459-13.342-11.108-15.704
			c-13.286-4.718-22.214-17.368-22.214-31.479c0-18.412,14.979-33.391,33.391-33.391c18.412,0,33.391,14.979,33.391,33.391
			c0,8.215,0,170.861,0,178.087H83.478H83.428z M133.565,478.609h-33.391v-33.391h16.696h16.696V478.609z M133.565,411.826v-61.217
			c0-9.206,7.49-16.696,16.696-16.696h211.478c9.206,0,16.696,7.49,16.696,16.696v61.217
			C370.477,411.826,141.809,411.826,133.565,411.826z M411.826,478.609h-33.391v-33.391h16.696h16.696V478.609z M456.395,265.217
			c-6.649,2.362-11.096,8.648-11.108,15.704c-0.043,24.732-0.032,83.436-0.019,114.225c0.004,9.222-7.455,16.679-16.696,16.679
			h-0.05h-16.696c0-7.204,0-169.87,0-178.087c0-18.412,14.979-33.391,33.391-33.391c18.412,0,33.391,14.979,33.391,33.391
			C478.609,247.85,469.681,260.5,456.395,265.217z"/>
	</g>
</g>
</svg>